ply
    format ascii 1.0
    element vertex 1000
    property float x
    property float y
    property float z
    end_header
    -217.1357421875 -22.0257568359375 0
-217.6414794921875 -39.79631423950195 0
-215.71107482910156 -57.52651596069336 0
-213.26950073242188 -75.53266143798828 0
-211.13829040527344 -94.32489013671875 0
-208.21713256835938 -113.72416687011719 0
0 0 0
0 0 0
-170.89633178710938 -155.7915496826172 0
-159.98875427246094 -171.10423278808594 0
-147.0919952392578 -184.87294006347656 0
-133.5688018798828 -198.49417114257812 0
-118.67704772949219 -210.90223693847656 0
0 0 0
-352.2547912597656 586.6128540039062 0
-371.20489501953125 568.8475341796875 0
-391.05511474609375 552.9407348632812 0
-410.23675537109375 536.3472900390625 0
-429.9996337890625 520.6370239257812 0
-443.8399963378906 498.2254638671875 0
-464.925048828125 484.17071533203125 0
-445.4855651855469 430.4914245605469 0
-497.7510681152344 446.2466735839844 0
-513.8925170898438 427.1680603027344 0
-528.7093505859375 407.0491027832031 0
-542.7413940429688 386.4205322265625 0
-556.8072509765625 365.8616943359375 0
-569.2389526367188 344.27398681640625 0
-580.836181640625 322.2690734863281 0
-592.477294921875 300.33099365234375 0
-602.3819580078125 277.55462646484375 0
-612.3363647460938 254.842529296875 0
-622.371826171875 232.1236572265625 0
-629.6647338867188 208.38157653808594 0
-636.0538940429688 184.41949462890625 0
-524.383544921875 131.0044403076172 0
-528.6695556640625 111.25889587402344 0
-528.5167846679688 90.74153900146484 0
-531.2916870117188 70.88816833496094 0
-529.8372802734375 50.6213493347168 0
-520.1281127929688 30.129011154174805 0
0 0 0
0 0 0
0 0 0
0 0 0
0 0 0
0 0 0
0 0 0
0 0 0
0 0 0
-560.3034057617188 -183.22210693359375 0
-564.7899169921875 -208.36582946777344 0
0 0 0
-4987.47314453125 -2276.6015625 0
-2287.486328125 -1149.3505859375 0
-3411.03857421875 -1876.755615234375 0
-4045.9423828125 -2427.39208984375 0
-1971.6844482421875 -1285.53466796875 0
0 0 0
0 0 0
-2775.442138671875 -2290.44189453125 0
222.5579071044922 559.61865234375 0
184.4224395751953 577.518310546875 0
144.632568359375 591.8335571289062 0
103.7418212890625 603.3967895507812 0
62.142478942871094 614.1138916015625 0
13.308245658874512 423.29083251953125 0
-16.074600219726562 422.94464111328125 0
-47.32860565185547 438.95587158203125 0
-77.96929168701172 436.33856201171875 0
0 0 0
-128.98915100097656 394.970947265625 0
-157.48301696777344 388.54815673828125 0
-183.94448852539062 376.46435546875 0
0 0 0
0 0 0
0 0 0
0 0 0
0 0 0
-298.7223815917969 251.50582885742188 0
-314.2361755371094 229.29592895507812 0
-329.3837890625 206.94764709472656 0
-18.777162551879883 219.44813537597656 0
-35.781471252441406 215.296875 0
-52.00638198852539 208.8729248046875 0
-68.07821655273438 203.14630126953125 0
-83.17964172363281 195.2721405029297 0
-98.39331817626953 188.0659942626953 0
-112.45576477050781 178.83026123046875 0
-125.67659759521484 168.55401611328125 0
-138.63919067382812 158.06402587890625 0
-150.729736328125 146.57969665527344 0
-161.87208557128906 134.17337036132812 0
-172.81423950195312 121.4981460571289 0
-181.89942932128906 107.42047119140625 0
-189.84039306640625 92.6670913696289 0
-197.51776123046875 77.69683074951172 0
-203.05398559570312 61.7991943359375 0
-208.28964233398438 45.727298736572266 0
-213.23974609375 29.349197387695312 0
-215.89332580566406 12.415075302124023 0
-218.1977081298828 -4.777321815490723 0
-219.12258911132812 -22.25653839111328 0
-219.6208038330078 -40.090763092041016 0
-218.652099609375 -58.14051055908203 0
-217.12879943847656 -76.61687469482422 0
-215.8560791015625 -96.02197265625 0
-215.69439697265625 -117.24408721923828 0
0 0 0
-183.37094116210938 -141.30584716796875 0
-172.89285278320312 -156.56826782226562 0
-161.31246948242188 -171.2333221435547 0
-149.11248779296875 -185.8185272216797 0
-136.58726501464844 -200.97988891601562 0
0 0 0
0 0 0
-354.9071044921875 579.1558837890625 0
-375.44036865234375 564.8607177734375 0
-394.81903076171875 549.0282592773438 0
-414.15582275390625 533.3268432617188 0
-432.23065185546875 516.180419921875 0
-448.9364013671875 497.68585205078125 0
-429.5119323730469 442.257568359375 0
-483.0838317871094 462.084716796875 0
-499.58551025390625 443.815673828125 0
-514.8187255859375 424.48114013671875 0
-529.3065795898438 404.62774658203125 0
-543.8480834960938 384.8614501953125 0
-555.9776000976562 363.47900390625 0
-568.985595703125 342.75860595703125 0
-581.2218017578125 321.5731201171875 0
-591.7772827148438 299.4999694824219 0
-602.4049072265625 277.5047912597656 0
-613.1385498046875 255.51754760742188 0
-621.1954345703125 232.4150390625 0
-608.4578857421875 202.43653869628906 0
-639.4960327148438 186.9061737060547 0
-524.0274658203125 132.42160034179688 0
-524.3924560546875 112.14556884765625 0
-529.1514282226562 92.93174743652344 0
-527.2615966796875 72.69979095458984 0
0 0 0
0 0 0
0 0 0
0 0 0
0 0 0
0 0 0
0 0 0
0 0 0
0 0 0
0 0 0
-555.8976440429688 -152.7418212890625 0
-572.3114013671875 -180.16561889648438 0
0 0 0
0 0 0
-5016.0595703125 -2212.90625 0
-2302.560546875 -1118.8455810546875 0
-3449.50048828125 -1836.1524658203125 0
-4094.76025390625 -2377.140380859375 0
-460.30279541015625 -290.3952331542969 0
0 0 0
-2904.3388671875 -2146.566650390625 0
-2816.08984375 -2246.29541015625 0
-16.666135787963867 222.62704467773438 0
-33.97640609741211 217.6135711669922 0
-50.593814849853516 211.27667236328125 0
-66.72904968261719 204.64553833007812 0
-82.51637268066406 197.72232055664062 0
-97.16814422607422 188.70191955566406 0
-111.43865203857422 179.46583557128906 0
-125.45134735107422 169.96624755859375 0
-138.00198364257812 158.62066650390625 0
-150.26014709472656 147.06105041503906 0
-161.5533905029297 134.55691528320312 0
-171.80909729003906 121.18867492675781 0
-181.8221435546875 107.55123138427734 0
-188.95162963867188 92.20816040039062 0
-196.65928649902344 77.14718627929688 0
-203.1624298095703 61.44172668457031 0
-207.42994689941406 44.97643280029297 0
-212.34756469726562 28.488229751586914 0
-214.9454345703125 11.446496963500977 0
-217.17108154296875 -5.855673789978027 0
-216.99911499023438 -23.333454132080078 0
-217.38145446777344 -41.193031311035156 0
-215.31385803222656 -58.995792388916016 0
-213.65924072265625 -77.409912109375 0
-210.41429138183594 -95.9290771484375 0
-207.29978942871094 -115.38786315917969 0
0 0 0
0 0 0
-169.4562225341797 -157.35675048828125 0
-158.3397674560547 -172.63134765625 0
-145.2375946044922 -186.33331298828125 0
-131.4998016357422 -199.87088012695312 0
-116.87676239013672 -213.04652404785156 0
0 0 0
-351.7748107910156 586.9008178710938 0
-366.9463806152344 570.4151000976562 0
-384.26666259765625 557.6796875 0
-400.555908203125 543.615234375 0
-417.5777587890625 530.65185546875 0
-429.036376953125 511.0286865234375 0
-448.34619140625 500.9049377441406 0
-433.7942810058594 454.7908935546875 0
-477.0312805175781 469.4004211425781 0
-490.9288024902344 453.3728942871094 0
-504.2904052734375 436.936767578125 0
-517.1041870117188 420.1098327636719 0
-530.154541015625 403.51605224609375 0
-541.043701171875 385.3566589355469 0
-552.98095703125 368.0218811035156 0
-564.3630981445312 350.3174743652344 0
-574.3126831054688 331.7611389160156 0
-585.4165649414062 313.87176513671875 0
-595.0668334960938 295.1669006347656 0
-602.3007202148438 275.3341979980469 0
-576.6004028320312 241.80467224121094 0
-505.75091552734375 193.48976135253906 0
-510.4461669921875 176.95974731445312 0
-511.9774475097656 159.50918579101562 0
-516.5330810546875 143.1417694091797 0
-517.1651000976562 125.81855010986328 0
0 0 0
0 0 0
0 0 0
0 0 0
0 0 0
0 0 0
0 0 0
0 0 0
0 0 0
0 0 0
-586.9367065429688 -64.77313995361328 0
-595.9747924804688 -84.95890045166016 0
0 0 0
-5367.72900390625 -1115.9251708984375 0
-2488.64208984375 -600.2173461914062 0
-3751.016357421875 -1031.465087890625 0
-4507.46337890625 -1394.50927734375 0
-6095.99462890625 -2099.787353515625 0
0 0 0
0 0 0
-3277.5361328125 -1490.4217529296875 0
0 0 0
0 0 0
0 0 0
0 0 0
0 0 0
-2307.89892578125 742.8345947265625 0
-2203.3251953125 810.0083618164062 0
0 0 0
0 0 0
0 0 0
0 0 0
0 0 0
0 0 0
0 0 0
0 0 0
-3434.9775390625 3015.02880859375 0
-3351.361328125 3193.482666015625 0
-3256.91357421875 3368.09765625 0
-3162.3740234375 3549.969482421875 0
-3037.8837890625 3704.718994140625 0
-2890.638671875 3834.81591796875 0
-2705.831787109375 3912.787109375 0
-2515.24853515625 3975.36083984375 0
-2330.1162109375 4039.36376953125 0
-2115.349853515625 4040.229736328125 0
-1934.1810302734375 4093.279296875 0
-1746.485107421875 4124.73876953125 0
-1569.3367919921875 4173.97802734375 0
-1384.2010498046875 4194.7685546875 0
-1214.2735595703125 4257.4736328125 0
-1036.5992431640625 4292.869140625 0
-863.5198974609375 4348.33740234375 0
-697.25146484375 4458.306640625 0
-580.1527099609375 5056.326171875 0
-380.6951599121094 5181.53369140625 0
-166.6286163330078 5134.546875 0
43.08470153808594 5094.06787109375 0
308.96759033203125 6254.87353515625 0
0 0 0
410.41400146484375 3111.297607421875 0
624.9401245117188 3596.355712890625 0
879.6715087890625 4068.23095703125 0
1238.1441650390625 4772.2490234375 0
3161.28369140625 10412.9560546875 0
6.999327182769775 20.06419563293457 0
27.210561752319336 68.81558990478516 0
6151.625 13870.29296875 0
1702.7076416015625 3451.06005859375 0
2734.67724609375 5014.82666015625 0
3325.31103515625 5545.69189453125 0
3970.828125 6047.05712890625 0
4662.20068359375 6503.83642578125 0
5396.81884765625 6913.1494140625 0
6171.91552734375 7272.25390625 0
7678.5400390625 8331.5419921875 0
7333.859375 7331.888671875 0
8333.0537109375 7675.79248046875 0
11373.1015625 9647.0224609375 0
11909.4072265625 9292.046875 0
1.2193613052368164 0.8735891580581665 0
6955.8544921875 4564.9189453125 0
7961.43505859375 4770.931640625 0
7644.0771484375 4165.791015625 0
1.3453586101531982 0.6633327007293701 0
0 0 0
0 0 0
0 0 0
0 0 0
1858.598876953125 481.6742248535156 0
1002.3936767578125 216.465087890625 0
1262.63818359375 219.05955505371094 0
1016.7286987304688 133.83956909179688 0
14916.900390625 1345.9503173828125 0
256.94012451171875 12.622697830200195 0
16039.525390625 -3340.7880859375 0
15975.3759765625 -3635.191650390625 0
15905.8203125 -3928.373046875 0
15830.888671875 -4220.21826171875 0
15750.6005859375 -4510.63623046875 0
15664.9833984375 -4799.5361328125 0
15574.0712890625 -5086.8046875 0
15477.892578125 -5372.345703125 0
15376.4775390625 -5656.0771484375 0
15269.8603515625 -5937.8955078125 0
15158.0771484375 -6217.712890625 0
15041.169921875 -6495.419921875 0
14919.1748046875 -6770.9296875 0
14792.1298828125 -7044.1572265625 0
14660.0859375 -7314.994140625 0
14523.0830078125 -7583.35791015625 0
14381.16796875 -7849.15625 0
14234.38671875 -8112.306640625 0
14082.79296875 -8372.7060546875 0
13926.435546875 -8630.2744140625 0
13765.369140625 -8884.923828125 0
13599.6474609375 -9136.5673828125 0
13429.32421875 -9385.12109375 0
13254.4609375 -9630.5009765625 0
13075.11328125 -9872.623046875 0
12891.3388671875 -10111.412109375 0
12703.208984375 -10346.7744140625 0
12510.783203125 -10578.638671875 0
12314.125 -10806.923828125 0
12113.296875 -11031.560546875 0
11908.376953125 -11252.458984375 0
11699.4287109375 -11469.552734375 0
11486.5244140625 -11682.765625 0
11269.728515625 -11892.0341796875 0
11049.1328125 -12097.26953125 0
10824.794921875 -12298.41796875 0
10596.7939453125 -12495.4072265625 0
10365.205078125 -12688.17578125 0
10130.115234375 -12876.646484375 0
9891.5986328125 -13060.7626953125 0
9649.7373046875 -13240.4609375 0
9404.6064453125 -13415.6865234375 0
9156.2998046875 -13586.369140625 0
8904.8974609375 -13752.45703125 0
8650.482421875 -13913.8935546875 0
8393.134765625 -14070.626953125 0
8132.955078125 -14222.5986328125 0
7870.02490234375 -14369.7587890625 0
7604.439453125 -14512.0556640625 0
7336.2685546875 -14649.451171875 0
7065.623046875 -14781.888671875 0
6792.587890625 -14909.326171875 0
6517.2548828125 -15031.7216796875 0
6239.7109375 -15149.03515625 0
5960.06396484375 -15261.22265625 0
5678.400390625 -15368.248046875 0
5394.81640625 -15470.07421875 0
5109.400390625 -15566.6728515625 0
4822.263671875 -15658.001953125 0
4533.49609375 -15744.0361328125 0
4243.1875 -15824.7470703125 0
3951.459228515625 -15900.1025390625 0
3658.386474609375 -15970.080078125 0
3364.07666015625 -16034.6572265625 0
3068.628662109375 -16093.8125 0
2772.135498046875 -16147.5244140625 0
2474.7119140625 -16195.7734375 0
2176.45166015625 -16238.5439453125 0
1877.447509765625 -16275.82421875 0
1577.8160400390625 -16307.59765625 0
1277.65087890625 -16333.8564453125 0
977.0536499023438 -16354.58984375 0
676.1181640625 -16369.79296875 0
374.9617614746094 -16379.458984375 0
73.67851257324219 -16383.583984375 0
-227.62181091308594 -16382.1689453125 0
-528.8607788085938 -16375.2119140625 0
-829.9130859375 -16362.716796875 0
-1130.6846923828125 -16344.6884765625 0
-1431.07373046875 -16321.1298828125 0
-1730.9866943359375 -16292.0517578125 0
-2030.306396484375 -16257.4638671875 0
-779.3338012695312 -5426.826171875 0
-410.44134521484375 -2526.883056640625 0
-1992.5750732421875 -10986.51953125 0
-94.08343505859375 -469.4143981933594 0
-2890.136474609375 -13159.107421875 0
0 0 0
0 0 0
-170.07925415039062 -611.2800903320312 0
-180.64938354492188 -605.8926391601562 0
-190.85107421875 -599.609375 0
-198.95901489257812 -587.4737548828125 0
-209.72906494140625 -583.7155151367188 0
-218.29586791992188 -574.1515502929688 0
-228.44512939453125 -569.1119384765625 0
-237.31471252441406 -561.13037109375 0
-245.96826171875 -553.0164184570312 0
-256.0966796875 -548.3995361328125 0
0 0 0
-184.516357421875 -359.9638366699219 0
-191.45925903320312 -357.17071533203125 0
-197.01829528808594 -351.8442077636719 0
-202.44635009765625 -346.43475341796875 0
-208.26275634765625 -341.7991943359375 0
-213.4413604736328 -336.2229309082031 0
-218.48565673828125 -330.5723571777344 0
-223.96133422851562 -325.67449951171875 0
-229.33111572265625 -320.6872253417969 0
-234.59326171875 -315.6130065917969 0
-239.1353302001953 -309.6625061035156 0
-244.16392517089844 -304.43231201171875 0
-249.081298828125 -299.1221923828125 0
-253.88619995117188 -293.7343444824219 0
-259.24505615234375 -289.0156555175781 0
-263.83502197265625 -283.4671936035156 0
-268.3087158203125 -277.84796142578125 0
-272.6653137207031 -272.16021728515625 0
-276.903564453125 -266.4066162109375 0
-281.02276611328125 -260.5892639160156 0
-285.76751708984375 -255.3771514892578 0
-289.6578674316406 -249.42608642578125 0
-294.1959228515625 -244.0570068359375 0
-297.8531494140625 -237.98121643066406 0
-302.1793212890625 -232.46336364746094 0
-306.4031982421875 -226.86700439453125 0
-309.70904541015625 -220.61361694335938 0
-4523.1708984375 -3098.181640625 0
-2138.298095703125 -1407.579833984375 0
-422.8327941894531 -267.32464599609375 0
-1134.275146484375 -688.2481689453125 0
-5570.34423828125 -3241.306884765625 0
-332.1201171875 -185.16558837890625 0
-335.4691467285156 -179.02655029296875 0
-338.70477294921875 -172.82688903808594 0
-341.8258056640625 -166.56884765625 0
-349.3655090332031 -162.3616180419922 0
-347.4914245605469 -153.78463745117188 0
0 0 0
0 0 0
-526.1494750976562 -198.92958068847656 0
-521.0079345703125 -186.10838317871094 0
-525.2901000976562 -176.8144073486328 0
-528.4529418945312 -167.12437438964844 0
-532.3958740234375 -157.66163635253906 0
-536.1691284179688 -148.1105499267578 0
-538.80224609375 -138.2251739501953 0
-542.2261352539062 -128.52381896972656 0
-402.0833435058594 -87.52847290039062 0
-409.2649841308594 -81.23885345458984 0
0 0 0
-554.4022216796875 -88.99691009521484 0
-554.7074584960938 -78.61096954345703 0
-558.0443725585938 -68.64070892333984 0
-560.2069091796875 -58.47028732299805 0
-563.1801147460938 -48.32914733886719 0
-564.971435546875 -38.031063079833984 0
-566.5740966796875 -27.683557510375977 0
-568.9864501953125 -17.320240020751953 0
-570.2086791992188 -6.8657732009887695 0
-572.2384643554688 3.634418487548828 0
-574.07421875 14.206803321838379 0
-574.7149658203125 24.80493927001953 0
-576.1578369140625 35.49277877807617 0
-577.4012451171875 46.24217224121094 0
-578.4435424804688 57.04911422729492 0
-579.2830200195312 67.90996551513672 0
-580.9088134765625 78.9555892944336 0
-581.3350830078125 89.93110656738281 0
-582.5386962890625 101.11978912353516 0
-582.5444946289062 112.1939926147461 0
-583.317626953125 123.5096435546875 0
-5341.79541015625 1234.11083984375 0
-2483.280029296875 622.0289916992188 0
355.21234130859375 -172.7692108154297 0
0 0 0
0 0 0
0 0 0
344.0798645019531 -205.93701171875 0
0 0 0
0 0 0
0 0 0
0 0 0
750.0711669921875 -567.3917846679688 0
728.0003662109375 -575.9022827148438 0
719.2110595703125 -594.7192993164062 0
709.9463500976562 -613.4242553710938 0
700.9493408203125 -632.67529296875 0
690.7218627929688 -651.1365966796875 0
680.7340698242188 -670.1519165039062 0
669.5478515625 -688.321044921875 0
655.1658935546875 -703.3911743164062 0
0 0 0
0 0 0
0 0 0
0 0 0
0 0 0
0 0 0
0 0 0
0 0 0
0 0 0
0 0 0
0 0 0
0 0 0
0 0 0
0 0 0
0 0 0
0 0 0
0 0 0
0 0 0
0 0 0
0 0 0
0 0 0
1480.5224609375 -5278.81201171875 0
318.88653564453125 -1239.6416015625 0
2443.336669921875 -10429.3671875 0
2300.203857421875 -10873.6201171875 0
895.7467041015625 -4739.08935546875 0
0 0 0
0 0 0
0 0 0
0 0 0
0 0 0
0 0 0
0 0 0
0 0 0
0 0 0
0 0 0
0 0 0
0 0 0
0 0 0
0 0 0
0 0 0
0 0 0
0 0 0
0 0 0
0 0 0
0 0 0
-1451.8328857421875 -5286.7744140625 0
-18.35193634033203 -61.57328414916992 0
-3411.26416015625 -10600.912109375 0
-3640.040283203125 -10524.55078125 0
-1842.9620361328125 -4976.986328125 0
-147.54373168945312 -373.40740966796875 0
-2124.66650390625 -5054.0673828125 0
-1042.9674072265625 -2337.9091796875 0
-4765.37548828125 -10088.93359375 0
-210.00079345703125 -420.75494384765625 0
-6457.6572265625 -12266.2392578125 0
0 0 0
0 0 0
-334.0201416015625 -545.3355102539062 0
-342.3728942871094 -532.716064453125 0
-351.5942077636719 -521.8592529296875 0
-361.66009521484375 -512.4885864257812 0
-368.514892578125 -498.9056396484375 0
-376.7872314453125 -487.6427307128906 0
-386.0025634765625 -477.8128356933594 0
-393.67919921875 -466.2850646972656 0
-401.7003479003906 -455.4002685546875 0
-409.4356994628906 -444.3877258300781 0
-426.4171142578125 -443.16302490234375 0
-285.29345703125 -283.92584228515625 0
-294.090087890625 -280.26788330078125 0
-298.61328125 -272.48516845703125 0
-302.93804931640625 -264.6386413574219 0
-307.06378173828125 -256.7331237792969 0
-311.770751953125 -249.39840698242188 0
-315.5101318359375 -241.3729705810547 0
-319.8562316894531 -233.89328002929688 0
-323.20684814453125 -225.7662353515625 0
-327.18829345703125 -218.15908813476562 0
-330.9922790527344 -210.4855499267578 0
-334.61767578125 -202.75001525878906 0
-338.0637512207031 -194.95632934570312 0
-341.32965087890625 -187.10862731933594 0
-344.41455078125 -179.21124267578125 0
-347.31793212890625 -171.26821899414062 0
-350.039306640625 -163.28363037109375 0
-352.578125 -155.26185607910156 0
-354.9341125488281 -147.2068328857422 0
-358.0388488769531 -139.4856719970703 0
-360.03619384765625 -131.3564453125 0
-361.84979248046875 -123.2062759399414 0
-364.4331359863281 -115.34107971191406 0
-366.8454895019531 -107.42176818847656 0
-368.1202697753906 -99.19190979003906 0
-370.18206787109375 -91.19644927978516 0
-372.0702209472656 -83.1583023071289 0
-5375.134765625 -1079.6904296875 0
-2520.1962890625 -449.678955078125 0
-485.8612060546875 -75.87462615966797 0
-1307.0587158203125 -175.2114715576172 0
-6912.97802734375 -774.6923217773438 0
-379.70904541015625 -34.243385314941406 0
-379.3638916015625 -25.943960189819336 0
-379.8367919921875 -17.722366333007812 0
-380.1315002441406 -9.492369651794434 0
-382.2478942871094 -1.2644450664520264 0
-379.9360046386719 6.972622394561768 0
-378.69671630859375 15.158980369567871 0
0 0 0
0 0 0
-549.4581909179688 57.895965576171875 0
-549.8115234375 70.00275421142578 0
-548.1665649414062 81.8931884765625 0
-547.2501220703125 93.91422271728516 0
-546.069580078125 105.93415832519531 0
-543.6473999023438 117.73513793945312 0
-541.9427490234375 129.7136688232422 0
-544.81005859375 142.9425048828125 0
-398.55780029296875 113.85045623779297 0
0 0 0
0 0 0
-527.8094482421875 188.619873046875 0
-524.3014526367188 200.2736358642578 0
-521.6937255859375 212.33514404296875 0
-517.890869140625 223.98011779785156 0
-513.8278198242188 235.5600128173828 0
-510.40557861328125 247.5050048828125 0
-505.8159484863281 258.9561462402344 0
-501.849365234375 270.7993469238281 0
-496.7367248535156 282.09783935546875 0
-492.22845458984375 293.8141174316406 0
-487.4447326660156 305.4671936035156 0
-482.386474609375 317.05023193359375 0
-477.0543518066406 328.5569763183594 0
-471.44927978515625 339.9810791015625 0
-213.44857788085938 -226.53094482421875 0
-215.47369384765625 -227.36895751953125 0
-213.3656463623047 -223.85409545898438 0
-210.54721069335938 -219.63136291503906 0
-208.4003448486328 -216.14662170410156 0
-205.5391387939453 -211.9580841064453 0
-208.2412872314453 -213.51492309570312 0
-210.2538299560547 -214.34410095214844 0
-212.27281188964844 -215.16346740722656 0
-215.00262451171875 -216.6827850341797 0
-217.74282836914062 -218.18826293945312 0
-219.7849884033203 -218.97402954101562 0
-222.5438995361328 -220.45355224609375 0
-225.3131103515625 -221.91903686523438 0
-226.66363525390625 -221.9710693359375 0
-228.73275756835938 -222.7147979736328 0
-229.37107849121094 -222.05735778808594 0
-223.52342224121094 -215.1565704345703 0
-218.36041259765625 -208.98275756835938 0
-220.40821838378906 -209.7338409423828 0
-220.28289794921875 -208.41307067871094 0
-225.25047302246094 -211.89097595214844 0
-222.93637084960938 -208.51123046875 0
-222.06935119628906 -206.50851440429688 0
-222.66119384765625 -205.8702392578125 0
-223.2511749267578 -205.2303009033203 0
-223.83934020996094 -204.58865356445312 0
-225.90577697753906 -205.29037475585938 0
-227.97808837890625 -205.98193359375 0
-230.80014038085938 -207.33152770996094 0
-233.6317901611328 -208.66661071777344 0
-237.22073364257812 -210.65109252929688 0
-240.07327270507812 -211.9549102783203 0
-242.93533325195312 -213.2439727783203 0
-245.0532684326172 -213.86083984375 0
-247.17674255371094 -214.46731567382812 0
-249.30569458007812 -215.06332397460938 0
-250.6810302734375 -214.9978790283203 0
-252.8189697265625 -215.5751190185547 0
-12497.3447265625 -10594.509765625 0
-12527.7021484375 -10558.595703125 0
-12557.9599609375 -10522.5908203125 0
-12588.1103515625 -10486.501953125 0
-12618.1591796875 -10450.3271484375 0
-12648.1025390625 -10414.0654296875 0
-12677.9423828125 -10377.71875 0
-12707.6748046875 -10341.2890625 0
-12737.3056640625 -10304.771484375 0
-12766.8310546875 -10268.169921875 0
-12796.25390625 -10231.478515625 0
-12825.568359375 -10194.7080078125 0
-12854.77734375 -10157.8515625 0
-12883.880859375 -10120.9130859375 0
-12912.875 -10083.892578125 0
-4330.7080078125 -3361.960205078125 0
-2026.679443359375 -1564.023681640625 0
-5774.7236328125 -4430.06640625 0
-6448.19970703125 -4917.38330078125 0
-5853.45361328125 -4437.31689453125 0
-266.9433898925781 -201.15737915039062 0
-269.1203918457031 -201.58937072753906 0
-272.1040954589844 -202.60781860351562 0
-275.899658203125 -204.20562744140625 0
-281.3175964355469 -206.96852111816406 0
-287.5608215332031 -210.29226684570312 0
-293.8254699707031 -213.58175659179688 0
-298.4901123046875 -215.66575622558594 0
-301.5446472167969 -216.5580596923828 0
-303.7927551269531 -216.85369873046875 0
-304.4139404296875 -215.98081970214844 0
-304.21539306640625 -214.5298614501953 0
-304.0110168457031 -213.08181762695312 0
-304.62139892578125 -212.20834350585938 0
-306.0514221191406 -211.9022674560547 0
-307.4822082519531 -211.58982849121094 0
-311.389892578125 -212.9645233154297 0
-316.9621276855469 -215.44273376464844 0
-356.7327880859375 -240.98123168945312 0
-363.8574523925781 -244.2760772705078 0
-360.39788818359375 -240.45565795898438 0
-357.7528381347656 -237.20974731445312 0
-357.5972595214844 -235.63162231445312 0
-354.92572021484375 -232.41302490234375 0
-353.07684326171875 -229.75706481933594 0
-351.2156982421875 -227.11366271972656 0
-351.02484130859375 -225.5640106201172 0
-353.35650634765625 -225.6318817138672 0
-350.62518310546875 -222.47369384765625 0
-360.5672912597656 -227.3330078125 0
-357.8285827636719 -224.1735382080078 0
-360.16845703125 -224.20245361328125 0
-361.6609802246094 -223.6937713623047 0
-363.1535339355469 -223.1783447265625 0
-357.81829833984375 -218.48709106445312 0
-371.2684326171875 -225.23944091796875 0
-367.63116455078125 -221.59169006347656 0
-358.82843017578125 -214.8842010498047 0
-357.7250061035156 -212.83067321777344 0
-360.9169921875 -213.3295135498047 0
-4727.671875 -2776.135009765625 0
209.1623992919922 -282.1837463378906 0
207.6691436767578 -286.99578857421875 0
204.9391326904297 -290.17669677734375 0
201.02830505371094 -291.6859436035156 0
197.11016845703125 -293.1435546875 0
193.73326110839844 -295.38616943359375 0
189.7921905517578 -296.7473449707031 0
186.37445068359375 -298.90570068359375 0
182.93228149414062 -301.024658203125 0
178.95640563964844 -302.2435607910156 0
175.47640991210938 -304.27716064453125 0
171.4835968017578 -305.3988342285156 0
167.9678955078125 -307.3464660644531 0
164.42994689941406 -309.25372314453125 0
160.8704833984375 -311.12017822265625 0
157.28968811035156 -312.9457092285156 0
153.68833923339844 -314.72998046875 0
150.4950408935547 -317.3764343261719 0
146.84329223632812 -319.08245849609375 0
143.9872589111328 -322.5728454589844 0
141.4677734375 -326.95709228515625 0
138.4796142578125 -330.4034729003906 0
136.18292236328125 -335.6773376464844 0
133.05252075195312 -339.07977294921875 0
130.9257354736328 -345.25933837890625 0
127.64279174804688 -348.6170959472656 0
125.2991714477539 -354.7734069824219 0
122.18631744384766 -359.0279541015625 0
119.61495971679688 -365.1579284667969 0
117.21898651123047 -372.2294616699219 0
115.90621948242188 -383.3614501953125 0
0 0 0
0 0 0
98.79835510253906 -372.6246643066406 0
94.88362884521484 -375.1880798339844 0
90.80619812011719 -377.2243957519531 0
86.75003051757812 -379.46014404296875 0
82.81359100341797 -382.38525390625 0
78.4201431274414 -383.31036376953125 0
706.4443359375 -3666.818603515625 0
666.632568359375 -3687.4765625 0
627.107666015625 -3711.645751953125 0
586.4925537109375 -3731.43994140625 0
0 0 0
0 0 0
0 0 0
0 0 0
370.761474609375 -3750.970703125 0
322.23809814453125 -3692.466064453125 0
288.8311462402344 -3814.580810546875 0
252.6610565185547 -3936.399658203125 0
0 0 0
0 0 0
0 0 0
0 0 0
27.052427291870117 -4024.4091796875 0
-19.491971969604492 -4100.45361328125 0
-69.3846435546875 -4274.93701171875 0
-119.56307220458984 -4314.59375 0
-170.55494689941406 -4350.90869140625 0
0 0 0
0 0 0
0 0 0
0 0 0
-528.5470581054688 -5456.962890625 0
-276.02362060546875 -2545.075927734375 0
-564.9659423828125 -4704.951171875 0
-727.1936645507812 -5520.056640625 0
-543.30712890625 -3787.9853515625 0
0 0 0
0 0 0
0 0 0
0 0 0
0 0 0
0 0 0
-533.9163818359375 -2356.778564453125 0
0 0 0
0 0 0
0 0 0
0 0 0
0 0 0
0 0 0
0 0 0
0 0 0
0 0 0
-1516.569091796875 -4321.09228515625 0
-1585.4599609375 -4356.73388671875 0
-1654.74853515625 -4389.71923828125 0
-1727.9100341796875 -4429.13330078125 0
-1787.879150390625 -4431.966796875 0
-1847.1798095703125 -4431.69580078125 0
-1879.7276611328125 -4367.95458984375 0
-1909.4368896484375 -4300.39892578125 0
-1938.2603759765625 -4233.65234375 0
-1944.154052734375 -4120.9169921875 0
-1978.530029296875 -4072.028076171875 0
-2001.8648681640625 -4002.549072265625 0
-2038.0550537109375 -3960.640625 0
-2064.659423828125 -3901.638671875 0
-2115.030029296875 -3888.23046875 0
-2152.67919921875 -3851.4833984375 0
-2210.6728515625 -3850.810791015625 0
-2295.974609375 -3895.1845703125 0
-2687.34033203125 -4441.83203125 0
-2738.5283203125 -4411.34033203125 0
-2759.4267578125 -4333.232421875 0
-2784.90966796875 -4264.44287109375 0
-3489.18896484375 -5211.263671875 0
0 0 0
-3153.966552734375 -4484.451171875 0
-1496.6448974609375 -2076.933837890625 0
-3319.44677734375 -4496.775390625 0
-3870.790283203125 -5119.65966796875 0
-4770.4521484375 -6161.32666015625 0
-3609.081787109375 -4552.4521484375 0
-4501.12451171875 -5545.73583984375 0
-255.30340576171875 -307.279052734375 0
-246.50360107421875 -289.85552978515625 0
-237.99575805664062 -273.4305419921875 0
-235.13136291503906 -263.9611511230469 0
-236.6290740966797 -259.58282470703125 0
-239.59222412109375 -256.85040283203125 0
-241.14291381835938 -252.63742065429688 0
-242.62863159179688 -248.42283630371094 0
-244.04953002929688 -244.20770263671875 0
-246.1208038330078 -240.6919403076172 0
-248.86656188964844 -237.85183715820312 0
-247.92550659179688 -231.56748962402344 0
-239.6722412109375 -218.76348876953125 0
-235.2637939453125 -209.84164428710938 0
-237.65625 -207.12815856933594 0
-240.7787628173828 -205.03573608398438 0
-243.88446044921875 -202.89883422851562 0
-247.7487030029297 -201.3483123779297 0
-251.60931396484375 -199.73561096191406 0
-256.255615234375 -198.6733856201172 0
-261.7076721191406 -198.13417053222656 0
-266.37652587890625 -196.90127563476562 0
-269.4293518066406 -194.41676330566406 0
-272.46014404296875 -191.88804626464844 0
-211.95553588867188 -229.2921905517578 0
-209.9109344482422 -225.733154296875 0
-207.16400146484375 -221.45797729492188 0
-205.07884216308594 -217.92942810058594 0
-202.28717041015625 -213.68893432617188 0
-204.29940795898438 -214.53628540039062 0
-207.0102996826172 -216.0955810546875 0
-208.3443603515625 -216.20057678222656 0
-211.76904296875 -218.45350646972656 0
-213.8125 -219.2561798095703 0
-216.56292724609375 -220.762451171875 0
-219.3240966796875 -222.25436401367188 0
-221.39154052734375 -223.02207946777344 0
-223.46536254882812 -223.77957153320312 0
-225.54571533203125 -224.52659606933594 0
-226.21080017089844 -223.85650634765625 0
-222.59669494628906 -218.97665405273438 0
-215.55955505371094 -210.7992706298828 0
-216.72178649902344 -210.6815948486328 0
-217.34585571289062 -210.0377197265625 0
-220.8526611328125 -212.16307067871094 0
-221.48104858398438 -211.50698852539062 0
-219.93179321289062 -208.78355407714844 0
-219.82296752929688 -207.44378662109375 0
-220.43739318847656 -206.79074096679688 0
-221.04995727539062 -206.13583374023438 0
-223.1272430419922 -206.83880615234375 0
-225.21070861816406 -207.53121948242188 0
-228.03753662109375 -208.88858032226562 0
-230.87440490722656 -210.23098754882812 0
-233.72122192382812 -211.5583953857422 0
-236.57797241210938 -212.8706817626953 0
-239.44451904296875 -214.1679229736328 0
-242.3208465576172 -215.44993591308594 0
-244.45753479003906 -216.05458068847656 0
-245.84872436523438 -215.9883575439453 0
-247.99481201171875 -216.57362365722656 0
-250.14657592773438 -217.14797973632812 0
-252.3038330078125 -217.71157836914062 0
-295.264892578125 -253.25807189941406 0
-295.25396728515625 -251.73220825195312 0
-295.99951171875 -250.8551025390625 0
-289.85919189453125 -244.17747497558594 0
-295.9493408203125 -247.81039428710938 0
-296.6831970214844 -246.93133544921875 0
-298.18499755859375 -246.68746948242188 0
-297.37066650390625 -244.5315399169922 0
-298.869140625 -244.28106689453125 0
-298.8163757324219 -242.76278686523438 0
-299.5353088378906 -241.8751678466797 0
-299.4716796875 -240.35955810546875 0
-301.7469177246094 -240.7172393798828 0
-302.459716796875 -239.82101440429688 0
-302.3844909667969 -238.30361938476562 0
-303.090087890625 -237.40557861328125 0
-304.58209228515625 -237.11968994140625 0
-307.6569519042969 -238.0508575439453 0
-181.925537109375 -139.90478515625 0
-4355.8955078125 -3329.261474609375 0
-2038.5458984375 -1548.5252685546875 0
-1754.818359375 -1324.807373046875 0
-2424.24267578125 -1818.92626953125 0
-6264.16357421875 -4671.0654296875 0
-180.97235107421875 -134.11399841308594 0
-178.148681640625 -131.20443725585938 0
-176.9232635498047 -129.49411010742188 0
-174.88058471679688 -127.2039566040039 0
-174.4467315673828 -126.09876251220703 0
-173.19573974609375 -124.413818359375 0
-172.7501678466797 -123.31844329833984 0
-172.29966735839844 -122.22679138183594 0
-172.66148376464844 -121.71514129638672 0
-172.20278930664062 -120.62860107421875 0
-172.55990600585938 -120.1172103881836 0
-172.91551208496094 -119.60472106933594 0
-173.2695770263672 -119.0912094116211 0
-174.44793701171875 -119.14059448242188 0
-173.97314453125 -118.06101989746094 0
-175.1517791748047 -118.10340881347656 0
-176.33212280273438 -118.13992309570312 0
-177.5142822265625 -118.17040252685547 0
-179.53219604492188 -118.74658203125 0
-180.7194061279297 -118.76260375976562 0
-181.9082489013672 -118.77267456054688 0
-183.93772888183594 -119.32089233398438 0
-186.81256103515625 -120.39988708496094 0
-189.69540405273438 -121.46281433105469 0
-192.58612060546875 -122.50977325439453 0
-197.1754150390625 -124.60904693603516 0
-205.37828063964844 -128.94190979003906 0
0 0 0
-195.9390106201172 -121.40081024169922 0
-197.7886199951172 -121.73627471923828 0
-199.8552703857422 -122.19218444824219 0
-202.7810516357422 -123.15605163574219 0
-206.5705108642578 -124.62017822265625 0
0 0 0
0 0 0
0 0 0
0 0 0
-353.8465576171875 580.9755859375 0
-374.833984375 565.2632446289062 0
-395.1378173828125 548.798828125 0
-415.34674072265625 532.39990234375 0
-436.1697998046875 516.7881469726562 0
-451.0143737792969 494.4508361816406 0
-430.57818603515625 437.0179443359375 0
-487.8836364746094 458.47552490234375 0
-504.2202453613281 438.5430603027344 0
-519.9418334960938 418.190185546875 0
-534.8451538085938 397.2779235839844 0
-549.7354125976562 376.40411376953125 0
-562.9652709960938 354.4399108886719 0
-575.3203735351562 332.0158386230469 0
