ply
    format ascii 1.0
    element vertex 1000
    property float x
    property float y
    property float z
    end_header
    0 0 0
-181.82823181152344 -368.0335998535156 0
-191.073486328125 -369.8039855957031 0
-200.55955505371094 -371.5789794921875 0
-212.99273681640625 -378.14031982421875 0
0 0 0
0 0 0
-78.69319152832031 -123.57035064697266 0
-79.66560363769531 -120.25579071044922 0
-80.11917877197266 -116.32918548583984 0
-81.03953552246094 -113.2393798828125 0
-81.8749008178711 -110.15472412109375 0
-82.62577056884766 -107.07727813720703 0
-83.29268646240234 -104.00908660888672 0
-84.51533508300781 -101.7212905883789 0
-85.68273162841797 -99.42350006103516 0
-86.79493713378906 -97.11695098876953 0
-88.53179168701172 -95.53630065917969 0
-88.85420227050781 -92.48239135742188 0
-90.50716400146484 -90.86537170410156 0
-92.13067626953125 -89.21882629394531 0
-92.99345397949219 -86.8606948852539 0
-94.54438781738281 -85.16995239257812 0
-96.06456756591797 -83.45154571533203 0
-97.55349731445312 -81.70604705810547 0
-99.01075744628906 -79.93392944335938 0
-100.43580627441406 -78.13585662841797 0
-101.8282241821289 -76.3123550415039 0
-103.1875228881836 -74.46407318115234 0
-104.5132827758789 -72.5915756225586 0
-105.8050765991211 -70.69546508789062 0
-107.90381622314453 -69.31687927246094 0
-109.13601684570312 -67.36016845703125 0
-111.19302368164062 -65.8913803100586 0
-112.36290740966797 -63.8759765625 0
-123.37507629394531 -67.22232818603516 0
-118.13915252685547 -61.63362121582031 0
-120.12594604492188 -59.94013214111328 0
-121.1871109008789 -57.764591217041016 0
-123.1191635131836 -55.98422622680664 0
-125.94376373291016 -54.550262451171875 0
-128.75607299804688 -53.03241729736328 0
-131.32115173339844 -51.339622497558594 0
0 0 0
0 0 0
0 0 0
0 0 0
-5265.14111328125 -1528.4287109375 0
-2470.97412109375 -669.2434692382812 0
-2625.4384765625 -660.5108642578125 0
-3436.105224609375 -798.8748779296875 0
-6434.3974609375 -1374.1722412109375 0
0 0 0
0 0 0
0 0 0
0 0 0
0 0 0
0 0 0
0 0 0
0 0 0
0 0 0
0 0 0
0 0 0
0 0 0
0 0 0
0 0 0
0 0 0
0 0 0
0 0 0
0 0 0
0 0 0
-598.682861328125 90.60384368896484 0
-582.9031982421875 98.9970474243164 0
-578.0755004882812 108.9346694946289 0
-399.4484558105469 379.8914489746094 0
-395.5097351074219 382.5534362792969 0
-391.5544738769531 385.1761474609375 0
-387.58319091796875 387.7593688964844 0
-384.29718017578125 391.0162658691406 0
-380.2889404296875 393.5262451171875 0
-376.95452880859375 396.72137451171875 0
-372.9106140136719 399.15753173828125 0
-370.2054443359375 403.02667236328125 0
-369.4722900390625 409.1048583984375 0
0 0 0
0 0 0
0 0 0
0 0 0
0 0 0
0 0 0
-257.92041015625 321.9212951660156 0
-253.6479949951172 322.1221618652344 0
0 0 0
-248.17544555664062 326.3570556640625 0
-240.62413024902344 322.0310974121094 0
0 0 0
0 0 0
0 0 0
0 0 0
0 0 0
0 0 0
0 0 0
0 0 0
0 0 0
0 0 0
-212.34661865234375 347.2145080566406 0
0 0 0
0 0 0
0 0 0
0 0 0
0 0 0
0 0 0
-1656.259033203125 3106.561767578125 0
-2538.3857421875 4859.46533203125 0
-1166.084716796875 2279.001220703125 0
-1341.3436279296875 2677.000244140625 0
-1677.4215087890625 3419.478515625 0
-3088.391845703125 6432.5107421875 0
0 0 0
0 0 0
0 0 0
0 0 0
0 0 0
0 0 0
-224.8444366455078 549.2606201171875 0
-218.62460327148438 547.1917724609375 0
-212.90963745117188 546.2221069335938 0
-207.58209228515625 546.1297607421875 0
-201.9239501953125 545.0488891601562 0
0 0 0
0 0 0
-310.8042907714844 258.8840637207031 0
-305.15216064453125 276.8143310546875 0
-289.6349182128906 285.9381103515625 0
0 0 0
-264.47955322265625 309.3534851074219 0
-253.03451538085938 322.60430908203125 0
0 0 0
-8987.7373046875 13698.4619140625 0
-8401.3818359375 14065.705078125 0
-7800.0400390625 14407.8671875 0
-7184.7958984375 14724.3330078125 0
-6556.732421875 15014.54296875 0
-5916.9814453125 15277.9775390625 0
-5266.67529296875 15514.16796875 0
-4606.9794921875 15722.6904296875 0
-3939.066162109375 15903.1767578125 0
-3264.1279296875 16055.3017578125 0
-2583.37109375 16178.7958984375 0
-1898.0052490234375 16273.4404296875 0
-1209.258544921875 16339.0625 0
-518.3515625 16375.5478515625 0
173.477783203125 16382.8310546875 0
864.999755859375 16360.8994140625 0
1554.977294921875 16309.7919921875 0
2242.181640625 16229.5986328125 0
2925.3876953125 16120.4638671875 0
3603.379150390625 15982.58203125 0
4274.9423828125 15816.1982421875 0
4938.88427734375 15621.609375 0
5594.0166015625 15399.1630859375 0
6239.173828125 15149.255859375 0
6873.2060546875 14872.333984375 0
7494.97998046875 14568.888671875 0
8103.38818359375 14239.4658203125 0
8697.34765625 13884.646484375 0
9275.794921875 13505.0693359375 0
9837.7021484375 13101.4072265625 0
10382.0654296875 12674.3828125 0
10907.9150390625 12224.755859375 0
11414.3134765625 11753.3271484375 0
11900.35546875 11260.94140625 0
12365.1767578125 10748.4736328125 0
12807.9462890625 10216.8369140625 0
13227.8759765625 9666.982421875 0
13624.216796875 9099.888671875 0
13996.26171875 8516.56640625 0
14343.3486328125 7918.05712890625 0
14664.85546875 7305.42822265625 0
14960.2109375 6679.7705078125 0
15228.888671875 6042.2021484375 0
15470.4091796875 5393.85791015625 0
15684.341796875 4735.89501953125 0
15870.3037109375 4069.48681640625 0
16027.9658203125 3395.821533203125 0
16157.0439453125 2716.100830078125 0
16257.3095703125 2031.5362548828125 0
16328.5849609375 1343.348876953125 0
0 0 0
0 0 0
-117.49781799316406 566.4419555664062 0
-387.0419921875 429.617919921875 0
-549.0093994140625 175.0792236328125 0
-564.30322265625 -126.23372650146484 0
-313.8627624511719 -291.7231750488281 0
155.14488220214844 371.39776611328125 0
130.31629943847656 381.6126708984375 0
100.01519012451172 372.2998962402344 0
78.50877380371094 395.7886047363281 0
53.11125564575195 408.814453125 0
0 0 0
-2969.67724609375 2025.203125 0
-2903.550048828125 2140.478759765625 0
-2827.6669921875 2249.416748046875 0
-2746.933837890625 2355.01318359375 0
-2664.458984375 2459.7451171875 0
-2579.408203125 2562.999755859375 0
-2491.72412109375 2664.777587890625 0
-2400.68994140625 2764.3154296875 0
-1808.8489990234375 2244.297607421875 0
-1653.3748779296875 2213.087890625 0
-1526.046630859375 2207.3408203125 0
-1407.8900146484375 2205.42919921875 0
-1891.4779052734375 3217.74267578125 0
-1778.541259765625 3297.147216796875 0
-1662.426025390625 3372.805908203125 0
-1545.1893310546875 3448.930419921875 0
0 0 0
0 0 0
0 0 0
0 0 0
0 0 0
-743.1271362304688 3651.397216796875 0
-603.6107177734375 3646.631103515625 0
-496.5904235839844 3879.849365234375 0
0 0 0
0 0 0
0 0 0
0 0 0
0 0 0
378.3507385253906 4050.869384765625 0
537.8912353515625 4118.5234375 0
712.1846313476562 4235.03515625 0
875.0823974609375 4243.970703125 0
1038.6954345703125 4242.96142578125 0
0 0 0
0 0 0
0 0 0
0 0 0
6737.05712890625 14934.501953125 0
7281.05517578125 14676.9716796875 0
7815.22802734375 14399.634765625 0
8338.8515625 14102.8662109375 0
8851.224609375 13787.0625 0
9351.650390625 13452.654296875 0
9839.4560546875 13100.08984375 0
10313.9833984375 12729.84765625 0
10774.591796875 12342.4248046875 0
11220.6572265625 11938.345703125 0
11651.58203125 11518.1552734375 0
12066.78125 11082.4208984375 0
12465.6962890625 10631.7294921875 0
12847.7880859375 10166.6904296875 0
13212.5419921875 9687.9306640625 0
13559.4638671875 9196.0966796875 0
13888.0869140625 8691.8515625 0
14197.9677734375 8175.87744140625 0
14488.6875 7648.86962890625 0
14759.853515625 7111.53857421875 0
15011.1005859375 6564.6103515625 0
15242.08984375 6008.8232421875 0
0 0 0
0 0 0
0 0 0
-2201.119140625 378.9409484863281 0
-2360.39599609375 463.6387023925781 0
-2306.634765625 509.57012939453125 0
0 0 0
0 0 0
0 0 0
0 0 0
0 0 0
0 0 0
0 0 0
0 0 0
0 0 0
-4135.59521484375 2008.447021484375 0
-4132.4453125 2128.173828125 0
-4137.56298828125 2255.187255859375 0
-4136.365234375 2382.09912109375 0
-4096.42138671875 2488.890380859375 0
-4030.994873046875 2580.55615234375 0
-3922.05908203125 2642.585205078125 0
-3823.066162109375 2708.45556640625 0
-3700.900390625 2754.58154296875 0
-3586.98095703125 2802.95361328125 0
-3476.915771484375 2850.845703125 0
-3390.86474609375 2916.000244140625 0
-3294.025390625 2969.98974609375 0
-3198.715576171875 3023.1142578125 0
-3150.34033203125 3120.565185546875 0
-3060.290771484375 3177.065673828125 0
-3022.7890625 3289.2353515625 0
-3034.586669921875 3461.718505859375 0
-3354.013916015625 4012.26416015625 0
-3225.75537109375 4048.2177734375 0
-3096.61669921875 4078.990966796875 0
-3161.87646484375 4374.41943359375 0
-3554.15380859375 5168.38916015625 0
0 0 0
-2891.14794921875 4658.22607421875 0
-1298.5814208984375 2206.19287109375 0
-2726.009765625 4890.28369140625 0
-2996.107177734375 5684.50537109375 0
-558.1708374023438 1122.0877685546875 0
-2495.62744140625 5326.8798828125 0
-161.3534393310547 366.5587463378906 0
-152.23086547851562 369.0885009765625 0
-140.02297973632812 363.46087646484375 0
-122.68063354492188 342.17205810546875 0
-112.33148193359375 338.07647705078125 0
-104.36737823486328 340.6192932128906 0
-94.99356842041016 338.160888671875 0
-89.01449584960938 348.04736328125 0
-80.82279205322266 350.04034423828125 0
-71.7784194946289 347.9230041503906 0
-63.59442138671875 349.51153564453125 0
-55.06364822387695 348.9320373535156 0
-44.37328338623047 331.54376220703125 0
-35.4875373840332 322.5537109375 0
-27.88734245300293 323.04852294921875 0
-20.361730575561523 324.61199951171875 0
-12.778066635131836 325.9996643066406 0
-5.156139373779297 328.2095031738281 0
2.5701992511749268 331.2400207519531 0
10.435911178588867 334.0870361328125 0
18.491268157958984 337.74420166015625 0
25.337875366210938 323.5092468261719 0
33.50569534301758 328.5459289550781 0
43.233551025390625 343.792236328125 0
53.509246826171875 357.5178527832031 0
56.74826431274414 326.60662841796875 0
62.25989532470703 314.39459228515625 0
67.82811737060547 304.7940368652344 0
73.5212173461914 297.2939453125 0
-196.99977111816406 -214.5172576904297 0
-199.0517578125 -215.34613037109375 0
-200.43008422851562 -215.43177795410156 0
-203.17813110351562 -216.97052001953125 0
-205.2522735595703 -217.76609802246094 0
-206.64549255371094 -217.824951171875 0
-208.7317657470703 -218.600341796875 0
-210.8253631591797 -219.3643798828125 0
-212.92596435546875 -220.11724853515625 0
-215.03370666503906 -220.8586883544922 0
-216.4485321044922 -220.8746337890625 0
-218.56796264648438 -221.59559631347656 0
-219.98980712890625 -221.59544372558594 0
-219.29347229003906 -219.46624755859375 0
-221.42205810546875 -220.16433715820312 0
-219.2891387939453 -216.63412475585938 0
-220.70404052734375 -216.62245178222656 0
-220.68927001953125 -215.2075958251953 0
-224.97683715820312 -217.9701690673828 0
-225.68235778808594 -217.2395782470703 0
-224.21737670898438 -214.43328857421875 0
-223.46160888671875 -212.32749938964844 0
-222.69447326660156 -210.22900390625 0
-221.91615295410156 -208.1376495361328 0
-221.85816955566406 -206.73536682128906 0
-222.52734375 -206.01492309570312 0
-224.66607666015625 -206.64634704589844 0
-226.81129455566406 -207.26602172851562 0
-229.7032012939453 -208.54615783691406 0
-233.348388671875 -210.47943115234375 0
-237.00848388671875 -212.39125061035156 0
-239.9365234375 -213.61654663085938 0
-242.87490844726562 -214.82513427734375 0
-245.072509765625 -215.35675048828125 0
-246.52276611328125 -215.21868896484375 0
-247.2192840576172 -214.41827392578125 0
-248.67068481445312 -214.26841735839844 0
-250.12376403808594 -214.11134338378906 0
-250.8166046142578 -213.29930114746094 0
-4187.96240234375 -3538.1884765625 0
-1960.87451171875 -1645.773681640625 0
-5606.5498046875 -4674.7138671875 0
-6263.57080078125 -5188.201171875 0
-5434.046875 -4471.4677734375 0
-254.91830444335938 -208.37998962402344 0
-256.36883544921875 -208.18283081054688 0
-257.8207702636719 -207.9783935546875 0
-259.2740478515625 -207.76675415039062 0
-261.5111389160156 -208.1705780029297 0
-266.1066589355469 -210.42295837402344 0
-277.9937438964844 -218.36148071289062 0
-288.9494323730469 -225.45616149902344 0
-292.6429138183594 -226.81529235839844 0
-292.5843505859375 -225.25531005859375 0
-291.7244567871094 -223.09059143066406 0
-290.8535461425781 -220.93386840820312 0
-292.3666076660156 -220.59197998046875 0
-296.2811584472656 -222.04173278808594 0
-314.8475646972656 -234.3656463623047 0
-319.4251708984375 -236.16757202148438 0
-321.8012390136719 -236.31448364257812 0
-324.1816101074219 -236.4484405517578 0
-326.5661926269531 -236.56942749023438 0
-330.578369140625 -237.84555053710938 0
-335.4158935546875 -239.67945861816406 0
-335.37567138671875 -238.01202392578125 0
-348.4062805175781 -245.56491088867188 0
-345.9236145019531 -242.14027404785156 0
-352.45452880859375 -245.0129852294922 0
0 0 0
0 0 0
0 0 0
0 0 0
0 0 0
0 0 0
0 0 0
-1115.13623046875 -733.0493774414062 0
-1106.4114990234375 -722.1876831054688 0
-1098.6771240234375 -712.0703735351562 0
-1090.0482177734375 -701.4691162109375 0
-1081.3619384765625 -690.9320068359375 0
-1074.307861328125 -681.52978515625 0
-957.4163208007812 -603.0308227539062 0
-733.8327026367188 -458.8897399902344 0
-3753.258544921875 -2330.142822265625 0
-44.47998809814453 -27.415197372436523 0
0 0 0
-12799.6279296875 -7774.96630859375 0
-12552.662109375 -7569.34423828125 0
-11698.5205078125 -7002.669921875 0
-10180.6064453125 -6049.3095703125 0
-9759.1611328125 -5756.15625 0
-8673.158203125 -5077.7802734375 0
-8246.8955078125 -4792.3828125 0
-7375.36181640625 -4253.9970703125 0
-6722.60498046875 -3848.5029296875 0
-6512.46484375 -3700.22265625 0
-1.959876298904419 -1.1051627397537231 0
-4579.6357421875 -2562.89697265625 0
-4980.88427734375 -2766.278564453125 0
154.5343780517578 -805.5614013671875 0
154.7249755859375 -802.4697875976562 0
155.48025512695312 -802.3237915039062 0
156.42694091796875 -803.1585083007812 0
157.18247985839844 -803.0110473632812 0
157.93865966796875 -802.8626098632812 0
158.30679321289062 -800.7515258789062 0
158.47586059570312 -797.65966796875 0
157.8564453125 -790.6455688476562 0
155.8469696044922 -776.7700805664062 0
154.601318359375 -766.8203735351562 0
154.13204956054688 -760.7938842773438 0
154.0501708984375 -756.7288818359375 0
150.5542449951172 -736.009521484375 0
146.61679077148438 -713.3383178710938 0
147.0855712890625 -712.2207641601562 0
148.16259765625 -714.0401611328125 0
149.65135192871094 -717.816162109375 0
151.96705627441406 -725.5050659179688 0
155.12147521972656 -737.1043701171875 0
158.29751586914062 -748.6985473632812 0
160.87254333496094 -757.3526611328125 0
163.04623413085938 -764.0468139648438 0
164.3942108154297 -766.8263549804688 0
165.53738403320312 -768.6263427734375 0
167.52955627441406 -774.33447265625 0
156.2061004638672 -718.7210083007812 0
149.79063415527344 -686.0888061523438 0
150.65025329589844 -686.9243774414062 0
152.372802734375 -691.6651000976562 0
156.91317749023438 -709.0961303710938 0
165.39178466796875 -744.0904541015625 0
170.45040893554688 -763.4537963867188 0
159.18844604492188 -709.869873046875 0
153.42965698242188 -681.1845703125 0
144.85882568359375 -640.3187866210938 0
145.4060821533203 -639.9384155273438 0
146.8986358642578 -643.700927734375 0
149.29205322265625 -651.3600463867188 0
3675.274658203125 -15966.203125 0
3690.309326171875 -15962.734375 0
3705.3330078125 -15959.25390625 0
3720.361083984375 -15955.7568359375 0
3735.385986328125 -15952.24609375 0
3750.39990234375 -15948.7236328125 0
3765.410400390625 -15945.185546875 0
3780.41748046875 -15941.634765625 0
3795.4287109375 -15938.0673828125 0
3810.436767578125 -15934.4853515625 0
3825.433837890625 -15930.8916015625 0
3840.43505859375 -15927.2822265625 0
3855.425537109375 -15923.66015625 0
3870.412353515625 -15920.0244140625 0
3885.4033203125 -15916.3720703125 0
3900.38330078125 -15912.7080078125 0
3915.367431640625 -15909.02734375 0
3930.347900390625 -15905.3330078125 0
3945.309814453125 -15901.62890625 0
3960.28369140625 -15897.90625 0
3975.25390625 -15894.169921875 0
3990.212890625 -15890.4208984375 0
4005.176025390625 -15886.65625 0
4020.1279296875 -15882.87890625 0
4035.076416015625 -15879.087890625 0
4050.02880859375 -15875.2802734375 0
1360.2623291015625 -5311.07275390625 0
637.4964599609375 -2479.3544921875 0
2251.214111328125 -8721.38671875 0
2467.628173828125 -9522.7255859375 0
1706.782470703125 -6561.13671875 0
174.15089416503906 -666.8861083984375 0
182.63980102539062 -696.70849609375 0
184.5682830810547 -701.37158203125 0
123.23018646240234 -466.4981994628906 0
118.2869644165039 -446.0834655761719 0
119.67115020751953 -449.5957946777344 0
119.25558471679688 -446.3430480957031 0
0 0 0
223.4250946044922 -829.9526977539062 0
219.9676513671875 -814.0545043945312 0
220.73419189453125 -813.8469848632812 0
221.49977111816406 -813.6389770507812 0
222.00233459472656 -812.4653930664062 0
222.76698303222656 -812.2560424804688 0
223.53184509277344 -812.0458984375 0
224.5627899169922 -812.7989501953125 0
225.32737731933594 -812.5872802734375 0
226.092529296875 -812.374755859375 0
227.1261444091797 -813.1246948242188 0
227.8917999267578 -812.9104614257812 0
228.9281005859375 -813.6580810546875 0
229.69386291503906 -813.4422607421875 0
230.73208618164062 -814.1878051757812 0
232.04586791992188 -815.8938598632812 0
232.81373596191406 -815.6751098632812 0
233.85719299316406 -816.4168090820312 0
234.90184020996094 -817.1573486328125 0
236.2256317138672 -818.857421875 0
238.108642578125 -822.4769897460938 0
0 0 0
0 0 0
106.56182861328125 -364.2318420410156 0
107.60887145996094 -366.5301208496094 0
108.02465057373047 -366.6684265136719 0
108.65306854248047 -367.5256042480469 0
109.56795501708984 -369.34051513671875 0
109.63042449951172 -368.27874755859375 0
110.83566284179688 -371.04986572265625 0
111.47216796875 -371.9032287597656 0
112.03820037841797 -372.516357421875 0
1583.9884033203125 -5248.69384765625 0
741.9357299804688 -2450.12890625 0
2866.1298828125 -9432.9345703125 0
3116.61962890625 -10222.7197265625 0
1208.0386962890625 -3949.11083984375 0
114.14077758789062 -371.8775329589844 0
114.49076843261719 -371.7698974609375 0
0 0 0
114.89450073242188 -370.5985107421875 0
116.72855377197266 -375.2644958496094 0
0 0 0
0 0 0
0 0 0
0 0 0
283.5709228515625 -896.7317504882812 0
279.1983337402344 -880.0220947265625 0
281.2402038574219 -883.5703125 0
0 0 0
0 0 0
0 0 0
0 0 0
0 0 0
0 0 0
0 0 0
0 0 0
0 0 0
0 0 0
0 0 0
0 0 0
0 0 0
0 0 0
0 0 0
0 0 0
0 0 0
0 0 0
0 0 0
328.4154357910156 -225.7112274169922 0
4453.5126953125 -3197.50390625 0
51.41005325317383 -38.536590576171875 0
8785.37109375 -6871.927734375 0
8642.2861328125 -7051.0302734375 0
4034.408935546875 -3432.070068359375 0
306.7613830566406 -272.0247497558594 0
4026.375244140625 -3721.035888671875 0
1843.9710693359375 -1775.7733154296875 0
7887.4736328125 -7914.572265625 0
337.47186279296875 -352.8467102050781 0
9575.6728515625 -10433 0
0 0 0
416.5677490234375 -493.0938720703125 0
399.26373291015625 -492.8098449707031 0
386.59771728515625 -497.752197265625 0
375.6893615722656 -504.79010009765625 0
360.0118713378906 -505.07574462890625 0
348.99212646484375 -511.5418701171875 0
335.6727294921875 -514.4189453125 0
323.4419860839844 -518.6635131835938 0
310.6678771972656 -521.7643432617188 0
298.39764404296875 -525.43017578125 0
290.86688232421875 -537.6085815429688 0
183.75839233398438 -356.98052978515625 0
178.4697723388672 -364.94879150390625 0
170.51084899902344 -367.6324462890625 0
161.71311950683594 -368.3122863769531 0
153.3433074951172 -369.7105712890625 0
145.34869384765625 -371.8525390625 0
136.9861297607422 -372.88385009765625 0
128.9683380126953 -374.6748352050781 0
120.93476867675781 -376.2942199707031 0
112.60289001464844 -376.7839660644531 0
104.56897735595703 -378.05474853515625 0
96.530517578125 -379.1548767089844 0
88.49092864990234 -380.0847473144531 0
80.45417785644531 -380.8446960449219 0
72.42364501953125 -381.435302734375 0
64.40290832519531 -381.8570861816406 0
56.3951416015625 -382.11077880859375 0
48.40457534790039 -382.197021484375 0
40.5395622253418 -383.111083984375 0
32.572662353515625 -382.866943359375 0
24.697229385375977 -383.45550537109375 0
16.76742935180664 -382.883056640625 0
8.895005226135254 -383.1467590332031 0
1.015981912612915 -382.2486572265625 0
-6.840078830718994 -382.1888122558594 0
-14.654993057250977 -380.9682312011719 0
-22.481430053710938 -380.5865783691406 0
-30.298370361328125 -380.0441589355469 0
-543.8289794921875 -5414.25634765625 0
-778.24365234375 -6418.49072265625 0
-1126.1824951171875 -7921.8505859375 0
-1371.216552734375 -8402.34765625 0
-2054.18701171875 -11141.71875 0
-2127.992919921875 -10344.8984375 0
-2850.65966796875 -12545.708984375 0
-0.3623519539833069 -1.4555758237838745 0
0 0 0
0 0 0
0 0 0
0 0 0
0 0 0
0 0 0
0 0 0
0 0 0
-2715.164794921875 -5936.55322265625 0
-1587.33154296875 -3290.1044921875 0
-147.2075958251953 -289.749755859375 0
-2475.075927734375 -4633.35791015625 0
-6201.4873046875 -11056.2900390625 0
-3928.03662109375 -6677.60546875 0
-5709.68359375 -9265.23828125 0
-11.517836570739746 -17.857826232910156 0
-4478.97021484375 -6640.7021484375 0
-4110.85595703125 -5832.6494140625 0
-8518.6962890625 -11573.998046875 0
-9573.9794921875 -12462.8935546875 0
-8206.6787109375 -10240.291015625 0
-7922.90380859375 -9480.169921875 0
-8452.40234375 -9701.37109375 0
-8477.8974609375 -9336.0908203125 0
-8667.982421875 -9159.8798828125 0
-9034.14453125 -9162.0908203125 0
-8853.6337890625 -8617.376953125 0
-8280.54296875 -7734.60888671875 0
-7103.32177734375 -6366.7373046875 0
-4515.20458984375 -3882.647216796875 0
-2619.10888671875 -2160.16064453125 0
-1658.9515380859375 -1311.908935546875 0
-869.479736328125 -659.0038452148438 0
-9376.2275390625 -6807.7119140625 0
-5099.6865234375 -3544.942138671875 0
-4745.14013671875 -3155.85107421875 0
-5457.0869140625 -3469.734130859375 0
-6621.283203125 -4021.286376953125 0
-8474.4697265625 -4911.26220703125 0
-11262.6220703125 -6221.46337890625 0
-14107.0703125 -7418.51123046875 0
-1662.5755615234375 -831.1402587890625 0
-3067.24560546875 -1455.3450927734375 0
-4030.476806640625 -1811.8548583984375 0
-4302.462890625 -1828.7811279296875 0
-5764.7890625 -2311.65087890625 0
-6589.5087890625 -2486.408203125 0
-15024.962890625 -5319.23291015625 0
-15373.90234375 -5089.6923828125 0
-1042.0677490234375 -321.3797302246094 0
-6217.40625 -1778.4029541015625 0
-15411.0341796875 -4067.404052734375 0
-1806.57763671875 -437.29754638671875 0
-5877.92236328125 -1295.5284423828125 0
-14125.908203125 -2810.327880859375 0
-4098.32080078125 -728.1298217773438 0
-4112.41943359375 -643.7486572265625 0
-5139.501953125 -696.6353149414062 0
-7441.7333984375 -853.3402709960938 0
-10834.8466796875 -1017.3052368164062 0
-21.19330406188965 -1.5512378215789795 0
-12600.607421875 -662.2801513671875 0
-11613.0673828125 -371.2534484863281 0
-15461.244140625 -176.33328247070312 0
-12890.7109375 117.9371566772461 0
-4416.55126953125 131.22047424316406 0
-5435.87841796875 273.4127197265625 0
-7280.4599609375 516.3822631835938 0
-3379.595947265625 309.6283264160156 0
-4390.11279296875 493.3822021484375 0
-1.7346680164337158 0.23114266991615295 0
0 0 0
-5925.60107421875 1038.9935302734375 0
-2829.091552734375 556.2117919921875 0
-2817.062744140625 614.237548828125 0
-2803.843994140625 672.0037841796875 0
-2541.77001953125 664.716064453125 0
-2527.572265625 716.8132934570312 0
-2512.306640625 768.6077270507812 0
-2739.1884765625 899.9873046875 0
-2720.113525390625 956.0921630859375 0
-2699.8896484375 1011.7937622070312 0
-2678.525146484375 1067.0679931640625 0
-2891.8544921875 1221.5025634765625 0
-3099.8681640625 1385.1138916015625 0
-3070.74658203125 1448.5294189453125 0
-3269.567138671875 1625.286865234375 0
-3462.322509765625 1810.7803955078125 0
0 0 0
0 0 0
-2227.6796875 186.82411193847656 0
0 0 0
-2370.640625 180.4706268310547 0
0 0 0
0 0 0
0 0 0
0 0 0
0 0 0
0 0 0
0 0 0
0 0 0
0 0 0
-4568.279296875 171.57431030273438 0
-4630.61962890625 156.0928497314453 0
-4689.15966796875 140.022705078125 0
-4757.640625 123.76595306396484 0
-4785.82421875 106.09161376953125 0
-4794.4453125 87.84404754638672 0
-4746.75244140625 68.71866607666016 0
-4698.984375 49.96125411987305 0
-4644.14306640625 31.52459144592285 0
-4553.47998046875 13.405052185058594 0
-4531.248046875 -4.079737663269043 0
-4475.19970703125 -21.232202529907227 0
-4448.0859375 -38.20288848876953 0
-4415.90869140625 -54.90327835083008 0
-4433.66259765625 -72.17064666748047 0
-4416.35595703125 -88.87220001220703 0
-4454.970703125 -106.78260803222656 0
-4535.74560546875 -126.16596221923828 0
-5242.87255859375 -166.00692749023438 0
-5194.97509765625 -184.4824981689453 0
-5138.27099609375 -202.2493896484375 0
-5143.4501953125 -222.25851440429688 0
-6285.54248046875 -295.8215637207031 0
0 0 0
-5803.80078125 -317.884765625 0
-16355.6640625 -958.8994140625 0
-16351.857421875 -1021.7715454101562 0
-16347.8095703125 -1084.6168212890625 0
-16343.51953125 -1147.4500732421875 0
-16338.98828125 -1210.266357421875 0
-16334.21484375 -1273.0645751953125 0
-16329.2001953125 -1335.8480224609375 0
-16323.9443359375 -1398.6077880859375 0
-16318.447265625 -1461.346923828125 0
-16312.708984375 -1524.064453125 0
-16306.73046875 -1586.759521484375 0
-16300.509765625 -1649.4349365234375 0
-16294.048828125 -1712.0821533203125 0
-16287.34765625 -1774.7039794921875 0
-16280.4052734375 -1837.2996826171875 0
-16273.22265625 -1899.8682861328125 0
-16265.798828125 -1962.41259765625 0
-16258.134765625 -2024.9239501953125 0
-16250.23046875 -2087.405517578125 0
-16242.0869140625 -2149.856201171875 0
-16233.7021484375 -2212.275146484375 0
-16225.078125 -2274.661376953125 0
-16216.21484375 -2337.017822265625 0
-16207.111328125 -2399.3359375 0
-16197.7685546875 -2461.614501953125 0
-16188.1865234375 -2523.86083984375 0
-16178.365234375 -2586.06982421875 0
-16168.3037109375 -2648.244384765625 0
-16158.005859375 -2710.376220703125 0
-16147.466796875 -2772.4677734375 0
-16136.6904296875 -2834.518310546875 0
-16125.6748046875 -2896.52685546875 0
-5392.37451171875 -990.0027465820312 0
-2516.12109375 -471.9476623535156 0
-5514.00146484375 -1056.21630859375 0
-195.37567138671875 -217.34397888183594 0
-195.9439697265625 -216.831787109375 0
-198.52825927734375 -218.53854370117188 0
-200.4483642578125 -219.4949188232422 0
-202.37486267089844 -220.4426727294922 0
-203.62945556640625 -220.6470184326172 0
-205.56668090820312 -221.579345703125 0
-207.51016235351562 -222.50303649902344 0
-208.77586364746094 -222.68856811523438 0
-210.72988891601562 -223.5966796875 0
-212.0023193359375 -223.77015686035156 0
-213.27703857421875 -223.9385223388672 0
-213.17105102539062 -222.6570587158203 0
-214.44664001464844 -222.8187713623047 0
-212.94334411621094 -220.10043334960938 0
-213.518798828125 -219.54222106933594 0
-214.09278869628906 -218.98252868652344 0
-216.76820373535156 -220.56088256835938 0
-219.45335388183594 -222.1267547607422 0
-217.2154541015625 -218.71331787109375 0
-216.37420654296875 -216.7285614013672 0
-215.52406311035156 -214.7497100830078 0
-215.37538146972656 -213.48069763183594 0
-215.221435546875 -212.2140350341797 0
-215.0623779296875 -210.9495849609375 0
-216.3296661376953 -211.08419799804688 0
-218.31661987304688 -211.91015625 0
-221.02879333496094 -213.42172241210938 0
-224.4715118408203 -215.61331176757812 0
-227.92730712890625 -217.7882080078125 0
-230.67111206054688 -219.25762939453125 0
-233.4241180419922 -220.7141571044922 0
-236.1864013671875 -222.15771484375 0
-237.49740600585938 -222.22183227539062 0
-238.07838439941406 -221.5992889404297 0
-239.39144897460938 -221.65469360351562 0
-240.70643615722656 -221.70472717285156 0
-242.02340698242188 -221.749267578125 0
-242.6030731201172 -221.1149139404297 0
-4061.662353515625 -3682.486328125 0
-1901.0484619140625 -1714.530517578125 0
-5448.44091796875 -4888.0703125 0
-6084.2080078125 -5429.76611328125 0
-5369.63671875 -4766.8642578125 0
-246.0463104248047 -217.27694702148438 0
-247.36557006835938 -217.29205322265625 0
-249.43960571289062 -217.95973205566406 0
-251.51889038085938 -218.6179656982422 0
-254.35975646972656 -219.92083740234375 0
-260.2418518066406 -223.81854248046875 0
-275.4544372558594 -235.65036010742188 0
-280.449462890625 -238.6549072265625 0
-281.8366394042969 -238.56585693359375 0
-280.9302978515625 -236.53909301757812 0
-280.01531982421875 -234.5186309814453 0
-280.6282653808594 -233.7847900390625 0
-284.3193359375 -235.6015167236328 0
-300.5613098144531 -247.73605346679688 0
-306.4287109375 -251.2279815673828 0
-308.63543701171875 -251.6887664794922 0
-310.84649658203125 -252.13986206054688 0
-313.06207275390625 -252.5811004638672 0
-316.06201171875 -253.6382598876953 0
-320.63275146484375 -255.92910766601562 0
-320.5185241699219 -254.4669952392578 0
-332.9557189941406 -262.923095703125 0
-330.49713134765625 -259.5798645019531 0
-335.9039611816406 -262.4073486328125 0
0 0 0
0 0 0
0 0 0
0 0 0
0 0 0
0 0 0
0 0 0
0 0 0
-1060.2781982421875 -788.7789916992188 0
-1051.6881103515625 -778.1195678710938 0
-1044.0562744140625 -768.251708984375 0
-1035.5732421875 -757.8380737304688 0
-1029.46826171875 -749.2400512695312 0
-915.7881469726562 -662.8441772460938 0
-702.4449462890625 -505.6296691894531 0
-675.9163818359375 -483.8528747558594 0
0 0 0
0 0 0
0 0 0
0 0 0
0 0 0
0 0 0
0 0 0
-3274.172607421875 -2241.610595703125 0
-1.8598960638046265 -1.266209602355957 0
0 0 0
-13538.3505859375 -9113.4765625 0
-13615.138671875 -9113.4658203125 0
-13638.9501953125 -9077.7919921875 0
-4571.94384765625 -3025.74560546875 0
-2138.51611328125 -1407.2484130859375 0
-3260.359619140625 -2133.264892578125 0
-3958.306396484375 -2575.1611328125 0
0 0 0
0 0 0
0 0 0
-2181.031982421875 490.46868896484375 0
0 0 0
-2265.74755859375 700.2862548828125 0
0 0 0
0 0 0
0 0 0
0 0 0
0 0 0
0 0 0
0 0 0
0 0 0
0 0 0
-3529.026611328125 2927.930908203125 0
-3452.796875 3101.51513671875 0
-3370.643798828125 3275.83740234375 0
-3285.57421875 3454.2255859375 0
-3156.466552734375 3590.916259765625 0
-3019.4716796875 3720.062744140625 0
-2839.293212890625 3793.33984375 0
-2663.17236328125 3865.681640625 0
-2477.770263671875 3917.422119140625 0
-2278.560302734375 3936.624755859375 0
-2109.9599609375 3999.851806640625 0
-1930.5430908203125 4036.324462890625 0
-1757.484619140625 4078.718994140625 0
-1585.53271484375 4117.52783203125 0
-1430.025390625 4198.38916015625 0
-1257.777099609375 4230.22119140625 0
-1100.814453125 4316.08056640625 0
-948.0681762695312 4438.37255859375 0
-892.778564453125 5164.9072265625 0
-682.6506958007812 5146.169921875 0
-474.85113525390625 5113.24853515625 0
-276.6128845214844 5182.8740234375 0
-88.1119155883789 6275.8818359375 0
0 0 0
353.5035400390625 5471.09130859375 0
265.2623596191406 2546.219970703125 0
797.513916015625 5535.59619140625 0
1165.630859375 6320.66845703125 0
231.43385314941406 1026.99609375 0
1500.7879638671875 5620.58203125 0
117.84477996826172 380.6768493652344 0
131.95413208007812 373.63372802734375 0
140.7012939453125 353.5299072265625 0
145.9506378173828 328.5401916503906 0
156.4219512939453 317.84466552734375 0
168.7833709716797 311.4566345214844 0
178.84193420410156 301.1488342285156 0
194.88226318359375 300.6059875488281 0
205.96054077148438 291.9037780761719 0
216.04867553710938 282.002685546875 0
226.95655822753906 273.30072021484375 0
232.16561889648438 258.22796630859375 0
228.35629272460938 234.75445556640625 0
233.5935516357422 221.989013671875 0
242.13107299804688 212.6443328857422 0
251.07176208496094 203.6013946533203 0
259.674560546875 194.18336486816406 0
268.74749755859375 184.96981811523438 0
278.3403015136719 175.87564086914062 0
288.4952087402344 166.8115234375 0
298.3622741699219 157.218017578125 0
290.9970703125 139.02142333984375 0
304.4990539550781 131.044189453125 0
324.34423828125 124.72799682617188 0
338.4596252441406 115.11442565917969 0
314.918212890625 93.4814224243164 0
308.65545654296875 78.57512664794922 0
303.434326171875 64.67353057861328 0
300.812744140625 51.858036041259766 0
225.5362548828125 557.3463745117188 0
190.6684112548828 573.3790893554688 0
154.67105102539062 587.2218017578125 0
117.68252563476562 598.7953491210938 0
79.97638702392578 609.0211791992188 0
41.981136322021484 624.84130859375 0
1.531727910041809 425.4972229003906 0
-25.8106689453125 430.4768981933594 0
-54.42338180541992 438.8885498046875 0
-82.112060546875 434.305908203125 0
0 0 0
-128.88462829589844 397.1083068847656 0
-155.20065307617188 391.6175842285156 0
-178.34693908691406 378.0428161621094 0
0 0 0
0 0 0
0 0 0
0 0 0
-263.02313232421875 277.7140197753906 0
-286.337158203125 266.25555419921875 0
-300.3304138183594 245.65350341796875 0
-17.61878776550293 221.550537109375 0
